<?xml version="1.0" encoding="utf-8"?>

<!DOCTYPE svg PUBLIC "-//W3C//DTD SVG 1.0//EN" "http://www.w3.org/TR/2001/REC-SVG-20010904/DTD/svg10.dtd">
<!-- Uploaded to: SVG Repo, www.svgrepo.com, Generator: SVG Repo Mixer Tools -->
<svg version="1.0" id="Layer_1" xmlns="http://www.w3.org/2000/svg" xmlns:xlink="http://www.w3.org/1999/xlink" 
	 width="800px" height="800px" viewBox="0 0 64 64" enable-background="new 0 0 64 64" xml:space="preserve">
<g>
	<path fill="#394240" d="M54.628,9.377c-12.495-12.5-32.761-12.5-45.256,0c-12.496,12.492-12.496,32.757,0,45.249
		c12.496,12.5,32.761,12.5,45.256,0C67.124,42.134,67.124,21.869,54.628,9.377z M55.878,30.729
		c-6.554-0.344-13.214,1.921-18.222,6.929c-5.008,5.016-7.277,11.664-6.93,18.227c-4.441-0.242-8.801-1.68-12.586-4.367
		L51.512,18.15C54.202,21.932,55.64,26.291,55.878,30.729z M15.032,15.033c2.957-2.961,6.519-4.875,10.273-5.961
		c0.102,4.195-1.414,8.414-4.617,11.617c-3.207,3.203-7.425,4.719-11.621,4.617C10.157,21.557,12.071,17.994,15.032,15.033z
		 M8.122,33.274c6.555,0.352,13.214-1.913,18.222-6.921s7.277-11.664,6.93-18.227c4.441,0.234,8.801,1.672,12.582,4.367
		L12.485,45.853C9.797,42.071,8.36,37.72,8.122,33.274z M48.969,48.97c-2.957,2.961-6.523,4.883-10.273,5.969
		c-0.105-4.195,1.41-8.414,4.617-11.625c3.207-3.203,7.426-4.719,11.62-4.617C53.843,42.446,51.926,46.017,48.969,48.97z"/>
	<g>
		<path fill="#F76D57" d="M55.878,30.729c-0.238-4.438-1.676-8.797-4.366-12.578L18.141,51.517
			c3.785,2.688,8.145,4.125,12.586,4.367c-0.348-6.562,1.922-13.211,6.93-18.227C42.664,32.649,49.324,30.385,55.878,30.729z"/>
		<path fill="#F76D57" d="M25.305,9.072c-3.754,1.086-7.316,3-10.273,5.961c-2.961,2.961-4.875,6.523-5.965,10.273
			c4.195,0.102,8.414-1.414,11.621-4.617C23.891,17.486,25.406,13.268,25.305,9.072z"/>
		<path fill="#F76D57" d="M33.273,8.127c0.348,6.562-1.922,13.219-6.93,18.227s-11.667,7.272-18.222,6.921
			c0.238,4.445,1.676,8.797,4.363,12.578l33.371-33.358C42.074,9.799,37.715,8.361,33.273,8.127z"/>
		<path fill="#F76D57" d="M38.695,54.938c3.75-1.086,7.316-3.008,10.273-5.969c2.957-2.953,4.874-6.523,5.964-10.273
			c-4.194-0.102-8.413,1.414-11.62,4.617C40.105,46.524,38.59,50.743,38.695,54.938z"/>
	</g>
	<path opacity="0.2" fill="#231F20" d="M38.695,54.938c3.75-1.086,7.316-3.008,10.273-5.969c2.957-2.953,4.874-6.523,5.964-10.273
		c-4.194-0.102-8.413,1.414-11.62,4.617C40.105,46.524,38.59,50.743,38.695,54.938z"/>
	<path opacity="0.2" fill="#FFFFFF" d="M25.305,9.072c-3.754,1.086-7.316,3-10.273,5.961c-2.961,2.961-4.875,6.523-5.965,10.273
		c4.195,0.102,8.414-1.414,11.621-4.617C23.891,17.486,25.406,13.268,25.305,9.072z"/>
</g>
</svg>