<?xml version="1.0" encoding="utf-8"?>

<!-- Uploaded to: SVG Repo, www.svgrepo.com, Generator: SVG Repo Mixer Tools -->
<svg version="1.1" id="Icons" xmlns="http://www.w3.org/2000/svg" xmlns:xlink="http://www.w3.org/1999/xlink" 
	 viewBox="0 0 32 32" xml:space="preserve">
<style type="text/css">
	.st0{fill:none;stroke:#000000;stroke-width:2;stroke-linecap:round;stroke-linejoin:round;stroke-miterlimit:10;}
</style>
<g>
	<path d="M25,22c-1.4-1.2-1.9-3.2-1.1-5.1c1.3-3.4,0.2-6.7-3.7-10.6C18,4.1,15,3,12,3.1C8.9,3.2,6.1,4.5,4,6.9
		c-3.9,4.5-3.4,11.4,1.1,15.7C8.8,26,12,27,15.2,25.7c1.8-0.7,3.8-0.3,5,1.1l3.1,3.5c0.3,0.4,0.9,0.6,1.4,0.7c0,0,0,0,0.1,0
		c0.5,0,1-0.2,1.4-0.6l2.5-2.5c0.4-0.4,0.6-0.9,0.6-1.4s-0.3-1-0.7-1.4L25,22z M5.5,8.2c1.7-1.9,4-3,6.5-3.1
		c2.5-0.1,4.9,0.9,6.7,2.7c1.3,1.3,2.2,2.5,2.8,3.6L9.5,23.3c-0.9-0.5-1.9-1.2-3-2.3C2.7,17.5,2.3,11.9,5.5,8.2z"/>
	<path d="M27,1c-2.2,0-4,1.8-4,4s1.8,4,4,4s4-1.8,4-4S29.2,1,27,1z"/>
</g>
</svg>